<svg width="15" height="15" viewBox="0 0 15 15" fill="none" xmlns="http://www.w3.org/2000/svg">
<path fill-rule="evenodd" clip-rule="evenodd" d="M11.096 3.34C11.5587 3.34 11.9443 3.72558 11.9443 4.18826C11.9443 4.65095 11.5587 5.03652 11.096 5.03652C10.6334 5.03652 10.2478 4.65095 10.2478 4.18826C10.2478 3.72558 10.6334 3.34 11.096 3.34ZM7.47167 4.26538C9.39953 4.26538 10.9418 5.80766 10.9418 7.73553C10.9418 9.66339 9.39953 11.2057 7.47167 11.2057C5.54381 11.2057 4.00152 9.66339 4.00152 7.73553C4.00152 5.80766 5.54381 4.26538 7.47167 4.26538ZM7.47167 6.03901C6.5463 6.03901 5.77515 6.81015 5.77515 7.73553C5.77515 8.6609 6.5463 9.43204 7.47167 9.43204C8.39704 9.43204 9.16819 8.6609 9.16819 7.73553C9.16819 6.81015 8.39704 6.03901 7.47167 6.03901ZM10.9418 14.6758H4.00152C2.22789 14.6758 0.531372 12.9793 0.531372 11.2057V4.26538C0.531372 2.49174 2.22789 0.795227 4.00152 0.795227H10.9418C12.7155 0.795227 14.412 2.49174 14.412 4.26538V11.2057C14.412 12.9793 12.7155 14.6758 10.9418 14.6758ZM4.00152 2.49174C3.15326 2.49174 2.305 3.41712 2.305 4.18826V11.1286C2.305 11.9768 3.23038 12.8251 4.00152 12.8251H10.9418C11.7901 12.8251 12.6383 11.8997 12.6383 11.1286V4.18826C12.6383 3.34 11.713 2.49174 10.9418 2.49174H4.00152Z" fill="white"/>
</svg>
