<svg width="14" height="14" viewBox="0 0 14 14" fill="none" xmlns="http://www.w3.org/2000/svg">
<path d="M13.8806 12.4925C13.8806 13.2584 13.2508 13.8806 12.4837 13.8806H1.39694C0.629835 13.8806 0 13.2584 0 12.4925V1.38806C0 0.622234 0.629835 0 1.39694 0H12.4837C13.2588 0 13.8806 0.622234 13.8806 1.38806V12.4925Z" fill="white"/>
<path d="M4.51422 3.39027C4.51422 3.90082 4.1347 4.31565 3.50487 4.31565C2.9154 4.31565 2.53589 3.90082 2.53589 3.39027C2.53589 2.87175 2.93155 2.47288 3.53716 2.47288C4.1347 2.47288 4.50614 2.87175 4.51422 3.39027ZM2.58434 10.9847V5.04159H4.44962V10.9767H2.58434V10.9847Z" fill="#37364D"/>
<path d="M5.57189 6.94031C5.57189 6.19842 5.54766 5.58416 5.52344 5.04968H7.14647L7.2353 5.87135H7.2676C7.50984 5.48045 8.11545 4.91406 9.1248 4.91406C10.3522 4.91406 11.2727 5.72775 11.2727 7.47479V10.9848H9.40742V7.69018C9.40742 6.92436 9.14095 6.40583 8.46267 6.40583C7.94588 6.40583 7.63904 6.75683 7.50177 7.09986C7.45332 7.21952 7.43717 7.39502 7.43717 7.56254V10.9848H5.57189V6.94031Z" fill="#37364D"/>
</svg>
