<svg width="45" height="45" viewBox="0 0 45 45" fill="none" xmlns="http://www.w3.org/2000/svg">
<rect x="0.5" y="0.5" width="44" height="44" rx="22" stroke="#FFCE1C"/>
<path d="M29.8806 28.4925C29.8806 29.2584 29.2508 29.8806 28.4837 29.8806H17.3969C16.6298 29.8806 16 29.2584 16 28.4925V17.3881C16 16.6222 16.6298 16 17.3969 16H28.4837C29.2588 16 29.8806 16.6222 29.8806 17.3881V28.4925Z" fill="white"/>
<path d="M20.5142 19.3903C20.5142 19.9008 20.1347 20.3156 19.5049 20.3156C18.9154 20.3156 18.5359 19.9008 18.5359 19.3903C18.5359 18.8717 18.9316 18.4729 19.5372 18.4729C20.1347 18.4729 20.5061 18.8717 20.5142 19.3903ZM18.5843 26.9847V21.0416H20.4496V26.9767H18.5843V26.9847Z" fill="#37364D"/>
<path d="M21.5719 22.9403C21.5719 22.1984 21.5477 21.5842 21.5234 21.0497H23.1465L23.2353 21.8713H23.2676C23.5098 21.4805 24.1155 20.9141 25.1248 20.9141C26.3522 20.9141 27.2727 21.7278 27.2727 23.4748V26.9848H25.4074V23.6902C25.4074 22.9244 25.141 22.4058 24.4627 22.4058C23.9459 22.4058 23.639 22.7568 23.5018 23.0999C23.4533 23.2195 23.4372 23.395 23.4372 23.5625V26.9848H21.5719V22.9403Z" fill="#37364D"/>
</svg>
