<svg width="15" height="14" viewBox="0 0 15 14" fill="none" xmlns="http://www.w3.org/2000/svg">
<path d="M14.3807 12.5931C14.3807 13.3589 13.7509 13.9812 12.9838 13.9812H1.89706C1.12996 13.9812 0.500122 13.3589 0.500122 12.5931V1.48865C0.500122 0.72282 1.12996 0.100586 1.89706 0.100586H12.9838C13.759 0.100586 14.3807 0.72282 14.3807 1.48865V12.5931Z" fill="white"/>
<path d="M5.01428 3.49088C5.01428 4.00143 4.63476 4.41626 4.00493 4.41626C3.41547 4.41626 3.03595 4.00143 3.03595 3.49088C3.03595 2.97235 3.43162 2.57349 4.03723 2.57349C4.63476 2.57349 5.0062 2.97235 5.01428 3.49088ZM3.0844 11.0853V5.14219H4.94968V11.0773H3.0844V11.0853Z" fill="#37364D"/>
<path d="M6.07201 7.0409C6.07201 6.299 6.04778 5.68475 6.02356 5.15026H7.6466L7.73542 5.97193H7.76772C8.00996 5.58104 8.61557 5.01465 9.62492 5.01465C10.8523 5.01465 11.7728 5.82834 11.7728 7.57538V11.0854H9.90754V7.79077C9.90754 7.02494 9.64107 6.50641 8.96279 6.50641C8.446 6.50641 8.13916 6.85742 8.00189 7.20044C7.95344 7.3201 7.93729 7.49561 7.93729 7.66313V11.0854H6.07201V7.0409Z" fill="#37364D"/>
</svg>
