<svg width="101" height="51" viewBox="0 0 101 51" fill="none" xmlns="http://www.w3.org/2000/svg">
<path d="M57.0528 9.35872L57.3851 9.36987L57.5239 9.06768C58.5734 6.78248 61.1687 4.70486 64.8594 3.19129C68.5335 1.68456 73.2202 0.768631 78.3305 0.75396C84.3005 0.736821 89.6886 1.95371 93.568 3.91099C97.4753 5.88231 99.7147 8.52364 99.7227 11.3037C99.7307 14.0837 97.5065 16.7379 93.6107 18.7299C89.7427 20.7078 84.3618 21.9523 78.3919 21.9629L78.3914 21.9629C73.2699 21.9776 68.5837 21.0886 64.9068 19.6031C61.2138 18.1111 58.6105 16.0482 57.5366 13.7671L57.3955 13.4675L57.0646 13.4805L6.48236 15.4687C6.48213 15.4688 6.48191 15.4688 6.48168 15.4688C4.8335 15.5301 3.36548 15.1888 2.3272 14.6153C1.27929 14.0364 0.750181 13.2764 0.747979 12.5094L0.74265 10.6532C0.740451 9.88705 1.26956 9.12043 2.3181 8.53324C3.35619 7.95191 4.82203 7.60261 6.45791 7.66085L6.45894 7.66089L57.0528 9.35872ZM99.8312 49.0921L99.8329 49.6924L59.7199 49.8076C58.9271 49.8099 58.2347 49.6211 57.7572 49.34C57.2692 49.0527 57.0841 48.7251 57.0834 48.4589L57.0695 43.6406L57.068 43.1221L56.5499 43.1424L6.54522 45.1027C6.54512 45.1027 6.54501 45.1027 6.54491 45.1027C4.89658 45.1641 3.42842 44.8228 2.39006 44.2492C1.34215 43.6704 0.813032 42.9104 0.81083 42.1433L0.805501 40.2871C0.803301 39.521 1.33241 38.7544 2.38096 38.1672C3.41905 37.5859 4.88489 37.2366 6.52077 37.2948L6.52184 37.2949L56.538 38.968L57.0562 38.9853L57.0547 38.4669L57.0408 33.6485C57.0401 33.3823 57.2233 33.0537 57.7097 32.7636C58.1855 32.4798 58.8767 32.287 59.6696 32.2848L99.7826 32.1696L99.7843 32.757L69.0064 35.8944L68.5558 35.9404L68.5571 36.3933L68.5637 38.7103L68.5651 39.1862L69.0406 39.2083L99.8069 40.6368L99.8086 41.2252L69.051 42.8304L68.5756 42.8552L68.577 43.3311L68.5837 45.6481L68.585 46.1012L69.036 46.1444L99.8312 49.0921Z" fill="black" stroke="#FFCE1C"/>
</svg>
