<svg width="45" height="36" viewBox="0 0 45 36" fill="none" xmlns="http://www.w3.org/2000/svg">
<path opacity="0.2" d="M39.3504 0L44.9509 6.0917C40.6277 10.0218 37.893 12.7565 36.7467 14.2959C35.6004 15.8024 34.6834 17.6528 33.9956 19.8472C34.6179 19.3886 35.2402 19.0611 35.8624 18.8646C36.5175 18.6354 37.1725 18.5207 37.8275 18.5207C39.7271 18.5207 41.3974 19.3068 42.8384 20.8788C44.2795 22.4509 45 24.3504 45 26.5775C45 29.1976 44.083 31.4083 42.2489 33.2096C40.4148 34.9782 38.1878 35.8624 35.5677 35.8624C33.6354 35.8624 31.7686 35.3221 29.9672 34.2413C28.1987 33.1277 26.8068 31.6212 25.7915 29.7216C24.809 27.7893 24.3177 25.5622 24.3177 23.0404C24.3177 18.881 25.6932 14.8199 28.4443 10.857C31.2282 6.8941 34.8635 3.27511 39.3504 0ZM15.0328 0L20.6332 6.0917C16.2773 10.0218 13.5262 12.7565 12.3799 14.2959C11.2664 15.8024 10.3657 17.6528 9.67795 19.8472C10.3002 19.3886 10.9225 19.0611 11.5448 18.8646C12.1998 18.6354 12.8548 18.5207 13.5098 18.5207C15.4094 18.5207 17.0633 19.3068 18.4716 20.8788C19.9127 22.4509 20.6332 24.3504 20.6332 26.5775C20.6332 29.1976 19.7162 31.4083 17.8821 33.2096C16.0808 34.9782 13.8701 35.8624 11.25 35.8624C9.31769 35.8624 7.45087 35.3221 5.64956 34.2413C3.881 33.1277 2.48908 31.6212 1.4738 29.7216C0.491266 27.7893 0 25.5622 0 23.0404C0 18.881 1.37555 14.8199 4.12664 10.857C6.91048 6.8941 10.5459 3.27511 15.0328 0Z" fill="#FFCE1C"/>
</svg>
