<svg width="228" height="59" viewBox="0 0 228 59" fill="none" xmlns="http://www.w3.org/2000/svg">
<path d="M23.1855 6.86621C23.1855 10.748 20.9395 13.7876 16.4473 15.9849C17.2285 22.6255 17.9365 28.021 18.5713 32.1714C19.4502 37.811 20.6709 41.8394 22.2334 44.2563C23.6006 46.5513 25.1631 47.9917 26.9209 48.5776C27.458 48.6997 27.7388 48.9072 27.7632 49.2002C27.7388 49.4932 27.1895 49.6519 26.1152 49.6763C24.2598 49.6519 22.3921 48.5288 20.5122 46.3071C18.6323 44.1099 17.3384 41.8394 16.6304 39.4956C16.5571 39.3003 16.5083 39.1172 16.4839 38.9463C15.0923 34.4785 13.8594 27.3496 12.7852 17.5596L10.8809 18.2188C7.26758 29.6689 4.85059 38.5557 3.62988 44.8789C3.43457 45.416 3.23926 45.709 3.04395 45.7578C2.62891 45.7334 2.14062 45.4282 1.5791 44.8423C1.04199 44.2563 0.76123 43.5972 0.736816 42.8647C0.736816 42.1079 1.5791 38.4214 3.26367 31.8052C4.94824 25.189 7.54834 16.0337 11.064 4.33936C11.186 3.92432 11.3936 3.53369 11.6865 3.16748C12.6875 1.92236 14.3354 1.2998 16.6304 1.2998C17.9731 1.2998 19.4014 1.78809 20.915 2.76465C22.4287 3.74121 23.1855 5.1084 23.1855 6.86621ZM14.1768 5.32812C13.957 6.52441 13.481 8.4043 12.7485 10.9678C12.0161 13.5068 11.6133 14.8862 11.54 15.106C12.3945 14.9351 13.249 14.6787 14.1035 14.3369C17.5215 12.9209 19.2183 10.7236 19.1938 7.74512C19.1938 7.59863 19.1816 7.40332 19.1572 7.15918C18.8887 5.49902 18.1807 4.66895 17.0332 4.66895C15.8857 4.66895 14.9336 4.88867 14.1768 5.32812ZM32.707 26.0557C33.1953 25.9824 34.2451 24.9326 35.8564 22.9062C37.4678 20.8799 38.2734 19.293 38.2734 18.1455C38.2734 17.9746 38.2124 17.7793 38.0903 17.5596C37.6021 18.0479 36.5767 19.4395 35.0142 21.7344C33.4761 24.0293 32.707 25.4697 32.707 26.0557ZM47.2822 31.5122C48.5029 30.1938 49.1865 29.9619 49.333 30.8164C49.333 31.1338 49.1377 31.6587 48.7471 32.3911C47.5508 34.6128 45.7197 36.9688 43.2539 39.459C39.3477 43.4141 35.8931 45.3916 32.8901 45.3916C31.4741 45.3916 30.2656 44.9888 29.2646 44.1831C27.3848 42.645 26.4448 39.9717 26.4448 36.1631C26.4448 33.9902 27.104 30.9385 28.4224 27.0078C29.7651 23.0527 31.8159 19.4761 34.5747 16.2778C35.7954 14.7153 37.0649 13.9341 38.3833 13.9341C39.0181 13.9341 39.6772 14.0684 40.3608 14.3369C41.9722 14.9961 42.7778 16.0581 42.7778 17.5229C42.7778 17.7427 42.7046 18.0967 42.5581 18.585C41.5571 20.5625 39.9458 22.8452 37.7241 25.4331C35.5024 28.021 33.2441 30.084 30.9492 31.6221C30.168 34.4541 29.7773 36.6636 29.7773 38.2505C29.7773 39.8374 29.814 40.8506 29.8872 41.29C30.1069 42.3154 30.9248 42.8281 32.3408 42.8281C33.7568 42.8281 35.3926 42.1812 37.248 40.8872C39.1035 39.5688 41.0811 37.8354 43.1807 35.687C45.2803 33.5386 46.4644 32.3301 46.7329 32.0615C47.0259 31.793 47.209 31.6099 47.2822 31.5122ZM59.9531 18.4019C59.9531 21.9419 58.9766 23.7607 57.0234 23.8584C56.5352 23.8584 56.0713 23.7363 55.6318 23.4922C55.8271 27.7891 55.9248 31.9761 55.9248 36.0532C55.9248 40.1304 55.1558 43.0234 53.6177 44.7324C52.7388 45.709 51.6035 46.1973 50.2119 46.1973C48.8447 46.2217 47.8071 45.7456 47.0991 44.769C46.3911 43.8169 46.0371 42.877 46.0371 41.9492C46.0859 40.8018 46.8184 40.2158 48.2344 40.1914C49.1377 40.1914 49.5283 40.814 49.4062 42.0591C49.2842 43.3042 49.5771 43.9268 50.2852 43.9268C51.6035 43.9268 52.4092 42.2544 52.7021 38.9097C52.8486 37.3716 52.9097 35.2354 52.8853 32.501C52.8853 29.7666 52.6655 28.3872 52.2261 28.3628C52.0308 28.3628 51.7622 28.6924 51.4204 29.3516C51.0786 29.9863 50.2485 31.3047 48.9302 33.3066C47.6362 35.3086 46.5132 36.7979 45.561 37.7744C44.6089 38.751 43.9863 39.2881 43.6934 39.3857C43.0098 39.6299 42.6191 39.4102 42.5215 38.7266C42.5459 37.9941 42.9243 37.1396 43.6567 36.1631C46.2935 32.6719 48.8325 28.6436 51.2739 24.0781C51.8354 23.0283 52.1162 22.418 52.1162 22.2471V16.9736C52.1162 15.9727 52.6045 15.2036 53.5811 14.6665C53.9961 14.4468 54.3867 14.3369 54.7529 14.3369C56.2666 14.3613 57.6704 14.813 58.9644 15.6919C59.5747 16.1313 59.8921 16.6196 59.9165 17.1567C59.9409 17.6938 59.9531 18.1089 59.9531 18.4019ZM55.3389 20.8555C56.1689 20.709 56.645 20.4282 56.7671 20.0132C56.9136 19.5737 56.9868 19.1465 56.9868 18.7314C56.9868 18.292 56.9624 17.9624 56.9136 17.7427C56.1812 17.7427 55.6807 18.2554 55.4121 19.2808C55.3145 19.6226 55.2656 19.9399 55.2656 20.2329C55.2656 20.5259 55.29 20.7334 55.3389 20.8555ZM72.8804 15.6919L86.0273 15.3989C86.2959 15.3989 86.5889 15.6431 86.9062 16.1313C87.2236 16.5952 87.3945 17.23 87.4189 18.0356C87.3945 18.5728 86.6987 18.8535 85.3315 18.8779C81.2788 18.9756 76.3716 19.4639 70.6099 20.3428C70.1948 21.5391 69.5234 23.2603 68.5957 25.5063C64.5186 35.3696 62.48 42.291 62.48 46.2705C62.48 48.248 62.8584 50.1523 63.6152 51.9834C64.9336 55.0596 66.8989 56.5977 69.5112 56.5977C71.5376 56.5977 73.2344 56.0728 74.6016 55.0229C75.9932 53.9976 77.6289 52.3008 79.5088 49.9326C80.0947 49.1758 80.7051 48.9072 81.3398 49.127C81.9502 49.3955 82.2554 49.9204 82.2554 50.7017C82.2554 52.9478 80.9614 54.8154 78.3735 56.3047C75.7856 57.8184 73.0024 58.5752 70.0239 58.5752C67.0698 58.5752 64.5063 57.4888 62.3335 55.3159C60.1851 53.1431 59.1108 50.25 59.1108 46.6367C59.1108 44.2197 59.416 41.6318 60.0264 38.873C60.6367 36.1143 61.7476 32.6841 63.3589 28.5825C64.9702 24.4565 66.02 21.71 66.5083 20.3428C61.4546 20.3428 58.6348 20.2817 58.0488 20.1597C56.2422 19.769 55.3267 19 55.3022 17.8525C55.3267 17.4863 55.6074 17.2544 56.1445 17.1567L68.0464 16.168L75.8833 2.98438C76.7866 1.4707 77.6045 0.713867 78.3369 0.713867C78.6299 0.713867 78.9717 0.762695 79.3623 0.860352C80.8027 1.17773 81.5229 1.70264 81.5229 2.43506C81.5229 3.14307 80.7905 4.2417 79.3257 5.73096C77.8608 7.22021 76.9575 8.17236 76.6157 8.5874C75.4683 10.0034 74.2231 12.3716 72.8804 15.6919ZM97.5996 20.0864C93.6934 20.7456 90.2876 23.3091 87.3823 27.7769C84.5503 32.1226 83.061 36.4194 82.9146 40.6675C88.5054 33.2944 93.4004 26.4341 97.5996 20.0864ZM95.915 16.9736L98.0757 17.2666C98.4175 17.2666 98.7715 17.0713 99.1377 16.6807C99.5283 16.29 100.017 16.0947 100.603 16.0947C101.213 16.0947 101.689 16.2534 102.031 16.5708C102.397 16.8882 102.58 17.1689 102.58 17.4131C102.58 17.6328 102.458 18.0112 102.214 18.5483C101.97 19.0854 101.823 19.4395 101.774 19.6104C98.5273 29.791 96.9038 36.2852 96.9038 39.0928C96.9282 40.0693 97.1479 40.5698 97.563 40.5942C99.0522 40.5942 101.384 38.6411 104.558 34.7349C106.682 32.1226 108.049 30.2061 108.659 28.9854C109.294 27.7646 109.794 27.1177 110.161 27.0444C110.234 27.0444 110.295 27.0322 110.344 27.0078C110.783 27.0566 111.015 27.313 111.04 27.7769C111.04 28.6558 110.026 30.6333 108 33.7095C103.679 40.3013 99.9434 43.5972 96.7939 43.5972C94.5234 43.5972 93.3882 42.0103 93.3882 38.8364C93.3882 37.3228 93.6934 35.4429 94.3037 33.1968C94.9141 30.9263 95.2803 29.5103 95.4023 28.9487C94.8408 29.6812 92.9609 32.3423 89.7627 36.9321C86.5645 41.522 84.2695 44.2319 82.8779 45.062C82.4385 45.3062 82.0601 45.4404 81.7427 45.4648C80.3511 45.4648 79.3379 44.9155 78.7031 43.8169C78.4102 43.2798 78.2637 42.5107 78.2637 41.5098C78.2393 40.4844 78.9839 38.1406 80.4976 34.4785C82.939 28.5703 85.71 24.0171 88.8105 20.8188C91.252 18.3286 93.6201 17.0469 95.915 16.9736ZM115.031 13.0552C116.032 13.4214 116.545 13.9097 116.569 14.52C116.569 14.7397 116.398 15.3379 116.057 16.3145C116.057 16.3145 115.593 17.645 114.665 20.3062C111.394 29.6812 109.55 35.8823 109.135 38.9097C110.942 36.1509 113.115 32.2202 115.654 27.1177C118.217 21.9907 119.768 18.9268 120.305 17.9258C120.842 16.9248 121.245 16.0703 121.513 15.3623C121.806 14.6543 122.075 14.2637 122.319 14.1904C122.563 14.0928 123.015 14.0439 123.674 14.0439C124.65 14.0439 125.139 14.4956 125.139 15.3989C125.065 15.8628 124.541 17.3887 123.564 19.9766C122.612 22.54 121.574 25.9824 120.451 30.3037C119.353 34.6006 118.803 37.6279 118.803 39.3857C118.828 41.1191 118.999 42.0103 119.316 42.0591C120.39 42.0591 122.319 40.5332 125.102 37.4814C127.91 34.4053 129.96 31.6343 131.254 29.1685C131.792 28.1919 132.304 27.6914 132.792 27.667C133.037 27.7158 133.171 27.9111 133.195 28.2529C133.195 30.3037 131.828 32.9771 129.094 36.2729C126.384 39.5688 124.052 41.8882 122.099 43.231L121.367 43.707C120.537 44.1465 119.926 44.3662 119.536 44.3662H118.913C116.765 44 115.666 42.1934 115.617 38.9463C115.617 37.335 115.861 35.6748 116.35 33.9658L117.155 30.9995C114.763 36.2485 112.761 39.8618 111.149 41.8394C109.562 43.7925 108.122 44.769 106.828 44.769C105.852 44.7202 105.363 43.8413 105.363 42.1323C105.363 39.3003 106.364 34.5518 108.366 27.8867C111.198 18.4873 112.98 13.519 113.713 12.9819C113.859 12.9087 114.03 12.8721 114.226 12.8721C114.421 12.8721 114.689 12.9331 115.031 13.0552ZM144.548 20.9653L144.475 21.4414L144.401 21.8809C144.401 22.4668 143.547 24.8105 141.838 28.9121C140.104 33.0137 139.25 35.9189 139.274 37.6279C139.323 40.5332 140.031 41.998 141.398 42.0225C142.766 42.0225 144.768 40.4966 147.404 37.4448C150.578 33.7827 152.519 31.0239 153.227 29.1685C153.935 27.3374 154.484 26.4219 154.875 26.4219C155.192 26.4463 155.363 26.7881 155.388 27.4473C155.388 28.082 155.314 28.5703 155.168 28.9121L154.802 29.9009C153.752 32.5864 152.104 35.3818 149.858 38.2871C146.611 42.5596 143.718 44.6958 141.179 44.6958C140.373 44.6958 139.641 44.4883 138.981 44.0732C137.321 43.0234 136.491 41.0459 136.491 38.1406C136.491 37.1885 136.699 35.7236 137.114 33.7461C137.553 31.7686 137.761 30.7065 137.736 30.5601C137.736 30.3892 137.517 30.2061 137.077 30.0107C136.198 29.6201 135.612 29.5713 135.319 29.8643C135.075 30.2061 133.989 32.8428 132.06 37.7744C130.156 42.7061 128.85 45.1719 128.142 45.1719C127.922 45.1719 127.507 45.0254 126.896 44.7324C126.262 44.4395 125.944 44.0366 125.944 43.5239C125.944 43.4263 126.262 42.6816 126.896 41.29L128.911 36.6392C130.327 33.3677 131.987 29.0098 133.891 23.5654L138.762 9.7959C138.884 9.4541 139.274 9.271 139.934 9.24658L140.886 9.20996C142.058 9.20996 142.644 9.63721 142.644 10.4917C142.644 10.9067 142.009 12.7378 140.739 15.9849C139.47 19.2319 138.652 21.7344 138.286 23.4922L138.176 24.5908C138.176 24.9082 138.237 25.0913 138.359 25.1401C138.432 25.1157 138.737 24.5786 139.274 23.5288L140.227 21.6611C140.373 21.4414 140.52 21.1484 140.666 20.7822C141.203 19.7812 141.838 19.2808 142.57 19.2808C143.84 19.3052 144.499 19.8301 144.548 20.8555V20.9653ZM169.377 20.0864C165.471 20.7456 162.065 23.3091 159.16 27.7769C156.328 32.1226 154.838 36.4194 154.692 40.6675C160.283 33.2944 165.178 26.4341 169.377 20.0864ZM167.692 16.9736L169.853 17.2666C170.195 17.2666 170.549 17.0713 170.915 16.6807C171.306 16.29 171.794 16.0947 172.38 16.0947C172.99 16.0947 173.466 16.2534 173.808 16.5708C174.174 16.8882 174.357 17.1689 174.357 17.4131C174.357 17.6328 174.235 18.0112 173.991 18.5483C173.747 19.0854 173.601 19.4395 173.552 19.6104C170.305 29.791 168.681 36.2852 168.681 39.0928C168.706 40.0693 168.925 40.5698 169.34 40.5942C170.83 40.5942 173.161 38.6411 176.335 34.7349C178.459 32.1226 179.826 30.2061 180.437 28.9854C181.071 27.7646 181.572 27.1177 181.938 27.0444C182.011 27.0444 182.072 27.0322 182.121 27.0078C182.561 27.0566 182.792 27.313 182.817 27.7769C182.817 28.6558 181.804 30.6333 179.777 33.7095C175.456 40.3013 171.721 43.5972 168.571 43.5972C166.301 43.5972 165.166 42.0103 165.166 38.8364C165.166 37.3228 165.471 35.4429 166.081 33.1968C166.691 30.9263 167.058 29.5103 167.18 28.9487C166.618 29.6812 164.738 32.3423 161.54 36.9321C158.342 41.522 156.047 44.2319 154.655 45.062C154.216 45.3062 153.837 45.4404 153.52 45.4648C152.128 45.4648 151.115 44.9155 150.48 43.8169C150.188 43.2798 150.041 42.5107 150.041 41.5098C150.017 40.4844 150.761 38.1406 152.275 34.4785C154.716 28.5703 157.487 24.0171 160.588 20.8188C163.029 18.3286 165.397 17.0469 167.692 16.9736ZM205.412 30.3037C205.412 31.5244 204.021 33.7705 201.237 37.042C198.454 40.3135 196.367 42.4741 194.975 43.5239C193.608 44.5493 192.229 45.062 190.837 45.062C188.249 45.0376 186.955 42.9868 186.955 38.9097C186.955 36.981 187.346 33.9658 188.127 29.8643C188.908 25.7383 189.323 23.4922 189.372 23.126C186.784 23.9805 184.306 27.2275 181.938 32.8672C181.45 34.0635 180.668 36.1021 179.594 38.9829C178.544 41.8394 177.8 43.5361 177.36 44.0732C176.823 44.708 176.115 45.0254 175.236 45.0254C174.357 45.0254 173.906 44.708 173.881 44.0732C173.881 42.9014 177.8 33.1846 185.637 14.9229C186.857 12.042 187.565 10.4307 187.761 10.0889C188.176 9.2832 189.042 9.31982 190.361 10.1987C190.751 10.4673 190.947 10.7358 190.947 11.0044C190.971 11.2729 190.788 11.7002 190.397 12.2861C189.494 13.7021 188.688 15.3501 187.98 17.23L186.589 20.8555L187.761 19.4272C188.811 18.1333 189.653 17.1567 190.288 16.4976C190.922 15.814 191.447 15.4355 191.862 15.3623C192.302 15.2646 192.753 15.2158 193.217 15.2158C194.218 15.2891 194.743 15.8262 194.792 16.8271C194.792 17.3154 194.621 17.9746 194.279 18.8047C192.741 22.3447 191.557 27.7036 190.727 34.8813C190.507 36.9321 190.397 38.7388 190.397 40.3013C190.422 41.8394 190.8 42.6206 191.533 42.645C192.558 42.645 194.426 41.0581 197.136 37.8843C199.846 34.686 201.799 32.0371 202.995 29.9375C203.312 29.4248 203.764 29.1562 204.35 29.1318C204.96 29.2783 205.314 29.6689 205.412 30.3037ZM213.359 15.6919L226.506 15.3989C226.774 15.3989 227.067 15.6431 227.385 16.1313C227.702 16.5952 227.873 17.23 227.897 18.0356C227.873 18.5728 227.177 18.8535 225.81 18.8779C221.757 18.9756 216.85 19.4639 211.088 20.3428C210.673 21.5391 210.002 23.2603 209.074 25.5063C204.997 35.3696 202.958 42.291 202.958 46.2705C202.958 48.248 203.337 50.1523 204.094 51.9834C205.412 55.0596 207.377 56.5977 209.99 56.5977C212.016 56.5977 213.713 56.0728 215.08 55.0229C216.472 53.9976 218.107 52.3008 219.987 49.9326C220.573 49.1758 221.184 48.9072 221.818 49.127C222.429 49.3955 222.734 49.9204 222.734 50.7017C222.734 52.9478 221.44 54.8154 218.852 56.3047C216.264 57.8184 213.481 58.5752 210.502 58.5752C207.548 58.5752 204.985 57.4888 202.812 55.3159C200.664 53.1431 199.589 50.25 199.589 46.6367C199.589 44.2197 199.895 41.6318 200.505 38.873C201.115 36.1143 202.226 32.6841 203.837 28.5825C205.449 24.4565 206.499 21.71 206.987 20.3428C201.933 20.3428 199.113 20.2817 198.527 20.1597C196.721 19.769 195.805 19 195.781 17.8525C195.805 17.4863 196.086 17.2544 196.623 17.1567L208.525 16.168L216.362 2.98438C217.265 1.4707 218.083 0.713867 218.815 0.713867C219.108 0.713867 219.45 0.762695 219.841 0.860352C221.281 1.17773 222.001 1.70264 222.001 2.43506C222.001 3.14307 221.269 4.2417 219.804 5.73096C218.339 7.22021 217.436 8.17236 217.094 8.5874C215.947 10.0034 214.702 12.3716 213.359 15.6919Z" fill="#FFCE1C"/>
</svg>
