<svg width="109" height="60" viewBox="0 0 109 60" fill="none" xmlns="http://www.w3.org/2000/svg">
<path d="M5.00391 37.5547L4.78418 40.0815C4.78418 41.0337 5.11377 41.5342 5.77295 41.583C7.84814 41.583 9.3374 38.1162 10.2407 31.1826L13.8662 3.24072C13.9395 2.75244 14.1226 2.26416 14.4155 1.77588C15.1479 0.604004 16.1001 0.0180664 17.272 0.0180664C18.4438 0.0180664 19.6523 0.481934 20.8975 1.40967C22.1426 2.3374 22.7651 3.57031 22.7651 5.1084C22.7651 6.62207 22.4722 8.19678 21.8862 9.83252C20.9341 12.4448 19.7256 13.751 18.2607 13.751C17.4551 13.751 16.8691 13.4824 16.5029 12.9453L13.793 31.3291C13.3291 34.2832 12.6577 36.8711 11.7788 39.0928C10.1675 43.0234 8.18994 44.9888 5.84619 44.9888C4.72314 44.9888 3.62451 44.5127 2.55029 43.5605C1.50049 42.584 0.975586 41.0459 0.975586 38.9463C0.975586 36.8223 1.78125 35.748 3.39258 35.7236C4.41797 35.748 4.95508 36.3584 5.00391 37.5547ZM16.7959 9.13672C18.3584 8.96582 19.1763 7.56201 19.2495 4.92529C18.7856 4.97412 18.2363 5.26709 17.6016 5.8042C16.9912 6.31689 16.686 7.17139 16.686 8.36768C16.686 8.63623 16.7227 8.89258 16.7959 9.13672ZM29.7598 29.6445C33.9834 25.25 37.0352 20.4404 38.915 15.2158C39.623 13.2627 40.0869 11.395 40.3066 9.61279C39.7695 8.83154 38.915 8.45313 37.7432 8.47754C36.5957 8.47754 35.7656 8.73389 35.2529 9.24658C34.9111 10.5161 34.1665 13.4092 33.019 17.9258C31.8716 22.418 30.7852 26.3242 29.7598 29.6445ZM34.4473 1.92236L35.8389 1.73926C36.5713 1.73926 36.9863 1.95898 37.084 2.39844C37.1084 2.52051 37.0229 2.99658 36.8276 3.82666C36.6323 4.63232 36.5347 5.15723 36.5347 5.40137C36.8276 5.35254 37.2549 5.32812 37.8164 5.32812C40.2822 5.32812 41.9912 5.96289 42.9434 7.23242C43.3584 7.81836 43.5659 8.48975 43.5659 9.24658C43.5659 12.6646 42.333 16.6929 39.8672 21.3315C37.4258 25.9458 34.9966 29.3271 32.5796 31.4756C31.2368 32.6475 30.1138 33.2456 29.2104 33.27C27.0132 42.2788 24.6694 48.7119 22.1792 52.5693C20.7144 54.8398 19.0176 56.6099 17.0889 57.8794C15.1357 59.1733 13.6221 59.8203 12.5479 59.8203C11.4492 59.8203 10.8389 59.7104 10.7168 59.4907C10.5703 59.271 10.4971 59.1001 10.4971 58.978C10.4727 58.8804 10.6191 58.7949 10.9365 58.7217C11.2539 58.6484 11.4126 58.5996 11.4126 58.5752C13.2925 58.1113 15.0991 56.8784 16.8325 54.8765C19.9087 51.1655 22.7896 43.9634 25.4751 33.27L29.6865 16.0947C31.4443 8.79492 32.5308 4.65674 32.9458 3.68018C33.3608 2.6792 33.8369 2.10547 34.374 1.95898C34.4229 1.95898 34.4473 1.94678 34.4473 1.92236ZM54.2227 4.63232C54.3203 4.26611 54.4424 3.66797 54.5889 2.83789C54.7598 2.00781 55.0283 1.44629 55.3945 1.15332C55.7607 0.860352 56.4199 0.726074 57.3721 0.750488C58.3486 0.774902 58.8369 1.00684 58.8369 1.44629C58.8613 1.88574 57.4941 7.65967 54.7354 18.7681C52.001 29.8765 50.1577 36.981 49.2056 40.0815C48.2778 43.1821 47.4233 45.4404 46.6421 46.8564C45.8608 48.2725 44.7988 49.5664 43.4561 50.7383C42.1377 51.9102 41.1855 52.4839 40.5996 52.4595C40.0137 52.4351 39.7085 52.313 39.6841 52.0933C39.6841 51.8735 39.8306 51.5439 40.1235 51.1045C42.9312 46.832 45.4214 40.3257 47.5942 31.5854L54.2227 4.63232ZM71.2148 23.6753C70.5557 23.6753 70.2261 23.3945 70.2261 22.833C70.2505 22.5645 70.4702 22.186 70.8853 21.6978C71.3247 21.1851 71.9473 20.1108 72.7529 18.4751C74.5107 14.8862 75.3896 12.0054 75.3896 9.83252C75.3896 9.44189 75.2798 9.01465 75.0601 8.55078C74.5718 7.52539 73.9614 7.0127 73.229 7.0127C70.7632 7.06152 67.5405 13.7021 63.561 26.9346C62.4868 30.4258 61.9497 33.8438 61.9497 37.1885C61.9497 38.1406 62.1572 39.1172 62.5723 40.1182C63.4023 42.0713 64.6475 43.0479 66.3076 43.0479C69.2129 43.0479 72.1792 41.876 75.2065 39.5322C76.2808 38.7021 77.8677 37.396 79.9673 35.6138C82.0669 33.8315 83.2144 32.9404 83.4097 32.9404C83.5073 32.9648 83.5806 33.0747 83.6294 33.27C83.605 35.0522 81.5176 37.7866 77.3672 41.4731C73.9004 44.4761 70.3848 45.9775 66.8203 45.9775C64.3057 45.9775 62.3281 45.355 60.8877 44.1099C58.959 42.4253 57.9946 39.2881 57.9946 34.6982C57.9946 30.1084 59.1299 24.7739 61.4004 18.6948C63.6709 12.5913 66.686 7.78174 70.4458 4.26611C71.3003 3.50928 72.1792 3.11865 73.0825 3.09424C77.4282 3.09424 79.6011 4.49805 79.6011 7.30566C79.6011 8.81934 78.4292 11.9321 76.0854 16.644C73.7661 21.3315 72.1426 23.6753 71.2148 23.6753ZM108.166 1.48291C108.141 1.55615 108.129 1.61719 108.129 1.66602C108.129 1.8125 108.092 2.03223 108.019 2.3252L93.1143 37.8843C91.332 42.0103 89.7939 44.9766 88.5 46.7832C87.2305 48.5898 85.9243 49.9937 84.5815 50.9946C83.2388 51.9956 82.2988 52.4839 81.7617 52.4595C81.249 52.4351 81.0049 52.3008 81.0293 52.0566C81.0537 51.8369 81.2368 51.5195 81.5786 51.1045C84.0444 48.126 86.5469 43.8779 89.0859 38.3604L93.9199 27.3374C92.1621 16.3267 91.0024 9.56396 90.4409 7.04932C89.9038 4.51025 89.6719 2.91113 89.7451 2.25195C89.8428 1.69043 90.3555 1.25098 91.2832 0.933594C91.6494 0.811523 92.04 0.762695 92.4551 0.787109C92.8945 0.787109 93.1753 1.00684 93.2974 1.44629C93.5415 2.61816 94.0664 5.65771 94.8721 10.5649C95.6777 15.4722 96.2637 18.8779 96.6299 20.7822L103.075 4.63232C103.246 4.2417 103.466 3.63135 103.734 2.80127C104.003 1.97119 104.333 1.42187 104.723 1.15332C105.138 0.884766 105.81 0.750488 106.737 0.750488C107.689 0.726074 108.166 0.970215 108.166 1.48291Z" fill="#FFCE1C"/>
</svg>
