<svg width="14" height="12" viewBox="0 0 14 12" fill="none" xmlns="http://www.w3.org/2000/svg">
<path d="M6.73982 3.05142L6.76991 3.54756L6.26844 3.48681C4.44307 3.25392 2.84838 2.46414 1.49439 1.13771L0.832448 0.479562L0.661947 0.965582C0.300885 2.049 0.531563 3.19317 1.28378 3.9627C1.68496 4.38797 1.59469 4.44872 0.902655 4.19559C0.661947 4.11458 0.451327 4.05383 0.431268 4.08421C0.361062 4.15509 0.60177 5.0765 0.79233 5.44101C1.0531 5.94728 1.58466 6.44343 2.16637 6.73706L2.65782 6.96995L2.07611 6.98007C1.51445 6.98007 1.4944 6.9902 1.55457 7.20283C1.75516 7.86099 2.54749 8.55964 3.43009 8.8634L4.05192 9.07603L3.51032 9.40005C2.70796 9.86582 1.76519 10.1291 0.822419 10.1493C0.371091 10.1595 0 10.2 0 10.2303C0 10.3316 1.2236 10.8986 1.93569 11.1214C4.07198 11.7795 6.60944 11.496 8.51504 10.3721C9.86902 9.57218 11.223 7.98249 11.8549 6.44343C12.1959 5.62327 12.5369 4.12471 12.5369 3.40581C12.5369 2.94004 12.567 2.87928 13.1286 2.32239C13.4596 1.99837 13.7705 1.64398 13.8307 1.54273C13.931 1.35035 13.9209 1.35035 13.4094 1.52248C12.5569 1.82624 12.4366 1.78574 12.8578 1.3301C13.1687 1.00608 13.5398 0.41881 13.5398 0.246678C13.5398 0.216302 13.3894 0.266929 13.2189 0.358057C13.0383 0.459311 12.6372 0.611193 12.3363 0.702321L11.7947 0.874453L11.3032 0.540315C11.0324 0.358057 10.6513 0.155549 10.4507 0.0947966C9.93923 -0.0469591 9.15693 -0.0267083 8.69557 0.135298C7.44189 0.590942 6.64956 1.76549 6.73982 3.05142Z" fill="white"/>
</svg>
