<svg width="45" height="45" viewBox="0 0 45 45" fill="none" xmlns="http://www.w3.org/2000/svg">
<rect x="0.5" y="0.5" width="44" height="44" rx="22" stroke="#FFCE1C"/>
<path d="M22.7398 19.0514L22.7699 19.5476L22.2684 19.4868C20.4431 19.2539 18.8484 18.4641 17.4944 17.1377L16.8324 16.4796L16.6619 16.9656C16.3009 18.049 16.5316 19.1932 17.2838 19.9627C17.685 20.388 17.5947 20.4487 16.9027 20.1956C16.6619 20.1146 16.4513 20.0538 16.4313 20.0842C16.3611 20.1551 16.6018 21.0765 16.7923 21.441C17.0531 21.9473 17.5847 22.4434 18.1664 22.7371L18.6578 22.9699L18.0761 22.9801C17.5145 22.9801 17.4944 22.9902 17.5546 23.2028C17.7552 23.861 18.5475 24.5596 19.4301 24.8634L20.0519 25.076L19.5103 25.4C18.708 25.8658 17.7652 26.1291 16.8224 26.1493C16.3711 26.1595 16 26.2 16 26.2303C16 26.3316 17.2236 26.8986 17.9357 27.1214C20.072 27.7795 22.6094 27.496 24.515 26.3721C25.869 25.5722 27.223 23.9825 27.8549 22.4434C28.1959 21.6233 28.5369 20.1247 28.5369 19.4058C28.5369 18.94 28.567 18.8793 29.1286 18.3224C29.4596 17.9984 29.7705 17.644 29.8307 17.5427C29.931 17.3503 29.9209 17.3503 29.4094 17.5225C28.5569 17.8262 28.4366 17.7857 28.8578 17.3301C29.1687 17.0061 29.5398 16.4188 29.5398 16.2467C29.5398 16.2163 29.3894 16.2669 29.2189 16.3581C29.0383 16.4593 28.6372 16.6112 28.3363 16.7023L27.7947 16.8745L27.3032 16.5403C27.0324 16.3581 26.6513 16.1555 26.4507 16.0948C25.9392 15.953 25.1569 15.9733 24.6956 16.1353C23.4419 16.5909 22.6496 17.7655 22.7398 19.0514Z" fill="white"/>
</svg>
