<svg width="204" height="60" viewBox="0 0 204 60" fill="none" xmlns="http://www.w3.org/2000/svg">
<path d="M28.3945 26.3486C25.5625 32.5498 23.0601 37.1641 20.8872 40.1914C18.7144 43.2188 16.6025 44.7446 14.5518 44.769C13.2822 44.7202 12.6475 43.5605 12.6475 41.29C12.6475 39.0195 13.2822 35.2109 14.5518 29.8643C10.5967 38.2383 7.10547 43.0723 4.07812 44.3662C3.46777 44.6104 2.88184 44.7446 2.32031 44.769C1.05078 44.7202 0.416016 43.5483 0.416016 41.2534C0.416016 37.811 1.45361 32.3667 3.52881 24.9204C5.604 17.4741 7.11768 12.5181 8.06982 10.0522C9.04639 7.56201 9.63232 6.01172 9.82764 5.40137C10.3403 4.00977 11.1216 3.32617 12.1714 3.35059C13.2212 3.35059 13.7583 3.85107 13.7827 4.85205C13.7827 5.58447 13.502 6.68311 12.9404 8.14795C8.32617 20.4526 5.49414 30.6333 4.44434 38.6899C4.7373 38.6655 5.0791 38.4458 5.46973 38.0308C9.35156 33.5142 13.4653 26.1655 17.811 15.9849L20.6309 9.20996L21.0703 8.07471C21.5342 6.90283 21.8638 6.01172 22.0591 5.40137C22.5718 4.00977 23.353 3.32617 24.4028 3.35059C25.4526 3.35059 25.9897 3.85107 26.0142 4.85205C26.0142 5.16943 25.9897 5.52344 25.9409 5.91406C25.8677 6.59766 25.6113 7.43994 25.1719 8.44092C24.7324 9.44189 24.5005 9.99121 24.4761 10.0889C20.2524 21.71 17.6523 31.2437 16.6758 38.6899C16.9688 38.6655 17.3105 38.4458 17.7012 38.0308C21.6074 33.5142 25.7334 26.1533 30.0791 15.9482C30.2744 15.5088 31.1289 13.458 32.6426 9.7959C34.1562 6.10937 35.1694 4.11963 35.6821 3.82666C35.8286 3.75342 36.1704 3.7168 36.7075 3.7168C37.2446 3.69238 37.623 3.82666 37.8428 4.11963C38.0625 4.38818 38.1724 4.82764 38.1724 5.43799C38.1724 6.04834 37.9648 6.86621 37.5498 7.8916C37.1592 8.89258 36.9272 9.49072 36.854 9.68604C36.7808 9.85693 35.6455 11.8833 33.4482 15.7651C31.251 19.6226 29.5664 23.1504 28.3945 26.3486ZM41.1021 26.0557C41.5903 25.9824 42.6401 24.9326 44.2515 22.9062C45.8628 20.8799 46.6685 19.293 46.6685 18.1455C46.6685 17.9746 46.6074 17.7793 46.4854 17.5596C45.9971 18.0479 44.9717 19.4395 43.4092 21.7344C41.8711 24.0293 41.1021 25.4697 41.1021 26.0557ZM55.6772 31.5122C56.8979 30.1938 57.5815 29.9619 57.728 30.8164C57.728 31.1338 57.5327 31.6587 57.1421 32.3911C55.9458 34.6128 54.1147 36.9688 51.6489 39.459C47.7427 43.4141 44.2881 45.3916 41.2852 45.3916C39.8691 45.3916 38.6606 44.9888 37.6597 44.1831C35.7798 42.645 34.8398 39.9717 34.8398 36.1631C34.8398 33.9902 35.499 30.9385 36.8174 27.0078C38.1602 23.0527 40.2109 19.4761 42.9697 16.2778C44.1904 14.7153 45.46 13.9341 46.7783 13.9341C47.4131 13.9341 48.0723 14.0684 48.7559 14.3369C50.3672 14.9961 51.1729 16.0581 51.1729 17.5229C51.1729 17.7427 51.0996 18.0967 50.9531 18.585C49.9521 20.5625 48.3408 22.8452 46.1191 25.4331C43.8975 28.021 41.6392 30.084 39.3442 31.6221C38.563 34.4541 38.1724 36.6636 38.1724 38.2505C38.1724 39.8374 38.209 40.8506 38.2822 41.29C38.502 42.3154 39.3198 42.8281 40.7358 42.8281C42.1519 42.8281 43.7876 42.1812 45.6431 40.8872C47.4985 39.5688 49.4761 37.8354 51.5757 35.687C53.6753 33.5386 54.8594 32.3301 55.1279 32.0615C55.4209 31.793 55.604 31.6099 55.6772 31.5122ZM55.1279 46.2705C55.1279 48.248 55.5186 50.1523 56.2998 51.9834C57.6182 55.0596 59.5713 56.5977 62.1592 56.5977C64.1855 56.5977 65.8823 56.0728 67.2495 55.0229C68.6411 53.9976 70.2769 52.3008 72.1567 49.9326C72.7427 49.1758 73.353 48.9194 73.9878 49.1636C74.6226 49.3833 74.9399 49.8838 74.9399 50.665C74.9399 52.96 73.5728 54.9253 70.8384 56.561C68.1284 58.1968 65.5405 59.0146 63.0747 59.0146C55.7749 59.0146 52.125 54.6934 52.125 46.0508C52.125 42.2666 52.833 38.3237 54.249 34.2222L54.6152 33.1602C59.1807 20.0742 62.7207 11.2974 65.2354 6.82959C66.9932 3.60693 68.8975 1.99561 70.9482 1.99561C73.8535 2.02002 75.3306 3.06982 75.3794 5.14502C75.3794 6.43896 74.5127 8.48975 72.7793 11.2974C71.0459 14.0806 67.5669 18.9512 62.3423 25.9092C61.0239 27.3984 59.8521 29.083 58.8267 30.9629C56.3608 35.6016 55.1279 40.7041 55.1279 46.2705ZM61.8662 21.8076C62.2324 21.7832 63.917 19.1465 66.9199 13.8975C69.9473 8.62402 71.4487 5.90186 71.4243 5.73096C71.3999 5.53564 71.3022 5.43799 71.1313 5.43799C70.9604 5.41357 70.8506 5.42578 70.8018 5.47461C69.9961 5.96289 68.2871 8.56299 65.6748 13.2749C63.0869 17.9624 61.793 20.7456 61.793 21.6245C61.793 21.6978 61.8174 21.7588 61.8662 21.8076ZM81.3486 15.1792C84.4736 15.1792 86.0361 16.1924 86.0361 18.2188C85.9385 19.2686 85.0962 21.4902 83.5093 24.8838C81.9224 28.2529 80.7505 29.9375 79.9937 29.9375C79.6274 29.8643 79.3955 29.6689 79.2979 29.3516C79.2979 29.1562 79.4199 28.9243 79.6641 28.6558C79.9082 28.3872 80.2012 27.8989 80.543 27.1909C81.6172 25.0425 82.1543 23.2358 82.1543 21.771C82.1543 20.3062 81.9468 19.2808 81.5317 18.6948C80.8726 18.7192 80.1035 19.3906 79.2246 20.709C77.6377 23.1748 76.2583 26.3975 75.0864 30.377C73.939 34.3564 73.3652 37.5059 73.3652 39.8252C73.3652 40.2891 73.3774 40.6553 73.4019 40.9238C73.4995 42.584 74.1953 43.4141 75.4893 43.4141C79.3955 43.4141 84.6812 40.0205 91.3462 33.2334C92.689 31.8906 93.4336 31.5977 93.5801 32.3545C93.5801 32.7695 93.3359 33.3799 92.8477 34.1855C91.5781 36.2852 89.6128 38.4946 86.9517 40.814C83.021 44.2563 79.6519 45.9775 76.8442 45.9775C74.9888 45.9531 73.4995 45.2573 72.3765 43.8901C71.2534 42.5474 70.5454 41.1924 70.2524 39.8252C69.5444 36.5293 69.9717 33.1968 71.5342 29.8276C71.583 29.73 71.8271 29.2051 72.2666 28.2529C74.8545 22.5156 77.2349 18.4263 79.4077 15.9849C79.896 15.4722 80.543 15.2036 81.3486 15.1792ZM104.054 16.5342C105.323 16.5342 107.008 16.2046 109.107 15.5454C111.231 14.8862 112.696 14.5933 113.502 14.6665C114.332 14.7397 114.881 15.0693 115.15 15.6553C115.443 16.2412 115.406 16.8149 115.04 17.3765C114.674 17.9136 113.893 18.2188 112.696 18.292H106.947C105.775 18.292 105.03 18.6704 104.713 19.4272C104.664 19.4761 104.432 20.7334 104.017 23.1992C103.626 25.665 103.395 27.0688 103.321 27.4106C102.125 33.2456 100.465 37.689 98.3408 40.7407L98.3042 40.7773C96.1069 43.9512 94.3613 45.5381 93.0674 45.5381C91.4561 45.4648 90.5894 44.3662 90.4673 42.2422C90.5894 39.5078 91.7734 34.6982 94.0195 27.8135C96.2656 20.9043 98.1333 16.4609 99.6226 14.4834C100.038 13.9219 100.501 13.6411 101.014 13.6411C101.551 13.6411 101.893 13.6533 102.04 13.6777C102.528 13.7754 102.772 14.2759 102.772 15.1792C102.796 16.0581 103.224 16.5098 104.054 16.5342ZM101.49 18.292C100.465 18.292 98.9756 21.3438 97.0225 27.4473C95.0693 33.5508 94.0684 37.0542 94.0195 37.9575C93.9951 38.8364 94.0806 39.2759 94.2759 39.2759C95.1792 39.2759 96.7417 37.0786 98.9634 32.6841C101.185 28.2651 102.296 24.481 102.296 21.3315C102.174 19.4761 101.905 18.4629 101.49 18.292ZM117.274 17.3398L117.787 17.2666C119.056 17.291 119.679 17.645 119.654 18.3286C119.63 18.6216 119.557 18.9268 119.435 19.2441C119.312 19.5371 118.897 20.4404 118.189 21.9541C117.311 23.834 116.957 25.1279 117.127 25.8359V26.0557L119.837 21.9541C121.595 19.293 122.901 17.3643 123.756 16.168C124 15.8506 124.415 15.6919 125.001 15.6919C125.587 15.6919 126.063 15.8506 126.429 16.168C126.82 16.4609 127.027 16.6929 127.052 16.8638L126.832 17.4131C122.438 28.082 120.24 35.6992 120.24 40.2646C120.24 42.1689 120.863 43.3042 122.108 43.6704C123.255 43.9878 124.427 43.646 125.624 42.645C128.968 39.9595 131.959 36.4805 134.596 32.208L135.292 31.0361C135.536 30.6455 135.914 30.4136 136.427 30.3403C137.086 30.3403 137.416 30.6943 137.416 31.4023C137.416 32.6719 136.012 34.9546 133.204 38.2505C130.421 41.522 128.346 43.6704 126.979 44.6958C125.636 45.7212 124.159 46.2339 122.547 46.2339C120.96 46.2339 119.654 45.2817 118.629 43.3774C117.921 42.0591 117.567 40.5332 117.567 38.7998C117.567 37.0664 117.97 34.7593 118.775 31.8784C119.605 28.9731 120.057 27.2275 120.13 26.6416C120.204 26.0557 120.228 25.7261 120.204 25.6528C119.056 27.1421 117.738 29.2295 116.249 31.915L113.319 37.0786C112.879 37.7866 112.44 38.1406 112 38.1406C110.78 38.1406 110.169 37.396 110.169 35.9067C110.169 35.2231 110.646 33.917 111.598 31.9883C112.55 30.0596 113.026 28.668 113.026 27.8135C112.684 28.375 112.098 29.437 111.268 30.9995C109.461 34.3931 107.081 37.5669 104.127 40.521C103.004 41.6196 101.954 42.2788 100.978 42.4985C99.5371 42.3276 99.1221 41.9492 99.7324 41.3633C101.393 39.752 102.735 38.3115 103.761 37.042C105.909 34.3809 107.447 31.3291 108.375 27.8867C109.327 24.4199 109.864 22.3936 109.986 21.8076C110.108 21.2217 110.34 20.2695 110.682 18.9512L111.415 16.3511C111.781 14.7886 112.196 13.7998 112.66 13.3848C113.148 12.9697 113.709 12.7622 114.344 12.7622C115.541 12.7622 116.139 13.1528 116.139 13.9341C116.139 14.6665 115.211 16.937 113.355 20.7456C111.5 24.5298 110.365 27.0078 109.95 28.1797C110.096 28.0088 110.523 27.3618 111.231 26.2388C111.939 25.1157 112.354 24.4565 112.477 24.2612C112.623 24.0659 112.892 23.6265 113.282 22.9429C115.357 19.2075 116.688 17.3398 117.274 17.3398ZM141.297 26.0557C141.786 25.9824 142.835 24.9326 144.447 22.9062C146.058 20.8799 146.864 19.293 146.864 18.1455C146.864 17.9746 146.803 17.7793 146.681 17.5596C146.192 18.0479 145.167 19.4395 143.604 21.7344C142.066 24.0293 141.297 25.4697 141.297 26.0557ZM155.873 31.5122C157.093 30.1938 157.777 29.9619 157.923 30.8164C157.923 31.1338 157.728 31.6587 157.337 32.3911C156.141 34.6128 154.31 36.9688 151.844 39.459C147.938 43.4141 144.483 45.3916 141.48 45.3916C140.064 45.3916 138.856 44.9888 137.855 44.1831C135.975 42.645 135.035 39.9717 135.035 36.1631C135.035 33.9902 135.694 30.9385 137.013 27.0078C138.355 23.0527 140.406 19.4761 143.165 16.2778C144.386 14.7153 145.655 13.9341 146.974 13.9341C147.608 13.9341 148.268 14.0684 148.951 14.3369C150.562 14.9961 151.368 16.0581 151.368 17.5229C151.368 17.7427 151.295 18.0967 151.148 18.585C150.147 20.5625 148.536 22.8452 146.314 25.4331C144.093 28.021 141.834 30.084 139.54 31.6221C138.758 34.4541 138.368 36.6636 138.368 38.2505C138.368 39.8374 138.404 40.8506 138.478 41.29C138.697 42.3154 139.515 42.8281 140.931 42.8281C142.347 42.8281 143.983 42.1812 145.838 40.8872C147.694 39.5688 149.671 37.8354 151.771 35.687C153.871 33.5386 155.055 32.3301 155.323 32.0615C155.616 31.793 155.799 31.6099 155.873 31.5122ZM183.961 15.6919L197.108 15.3989C197.376 15.3989 197.669 15.6431 197.987 16.1313C198.304 16.5952 198.475 17.23 198.5 18.0356C198.475 18.5728 197.779 18.8535 196.412 18.8779C192.359 18.9756 187.452 19.4639 181.69 20.3428C181.275 21.5391 180.604 23.2603 179.676 25.5063C175.599 35.3696 173.561 42.291 173.561 46.2705C173.561 48.248 173.939 50.1523 174.696 51.9834C176.014 55.0596 177.979 56.5977 180.592 56.5977C182.618 56.5977 184.315 56.0728 185.682 55.0229C187.074 53.9976 188.709 52.3008 190.589 49.9326C191.175 49.1758 191.786 48.9072 192.42 49.127C193.031 49.3955 193.336 49.9204 193.336 50.7017C193.336 52.9478 192.042 54.8154 189.454 56.3047C186.866 57.8184 184.083 58.5752 181.104 58.5752C178.15 58.5752 175.587 57.4888 173.414 55.3159C171.266 53.1431 170.191 50.25 170.191 46.6367C170.191 44.2197 170.497 41.6318 171.107 38.873C171.717 36.1143 172.828 32.6841 174.439 28.5825C176.051 24.4565 177.101 21.71 177.589 20.3428C172.535 20.3428 169.715 20.2817 169.129 20.1597C167.323 19.769 166.407 19 166.383 17.8525C166.407 17.4863 166.688 17.2544 167.225 17.1567L179.127 16.168L186.964 2.98438C187.867 1.4707 188.685 0.713867 189.417 0.713867C189.71 0.713867 190.052 0.762695 190.443 0.860352C191.883 1.17773 192.604 1.70264 192.604 2.43506C192.604 3.14307 191.871 4.2417 190.406 5.73096C188.941 7.22021 188.038 8.17236 187.696 8.5874C186.549 10.0034 185.304 12.3716 183.961 15.6919ZM200.953 18.292C199.732 18.4873 198.158 21.5391 196.229 27.4473C194.3 33.3555 193.336 36.8467 193.336 37.9209C193.336 38.9951 193.434 39.5322 193.629 39.5322C194.654 39.5322 196.253 37.335 198.426 32.9404C200.599 28.5215 201.686 24.481 201.686 20.8188C201.686 19.1587 201.441 18.3164 200.953 18.292ZM200.367 13.751C201.051 13.751 201.637 13.9463 202.125 14.3369C202.979 15.0693 203.407 16.4854 203.407 18.585C203.407 28.1797 201.698 35.3696 198.28 40.1548L197.767 40.9238C195.643 44 193.934 45.5381 192.64 45.5381C191.053 45.3672 190.138 44.2075 189.894 42.0591C189.894 40.2769 190.614 36.6636 192.054 31.2192C193.519 25.7749 195.191 21.063 197.071 17.0835C198.146 14.8862 199.244 13.7754 200.367 13.751Z" fill="white"/>
</svg>
