<svg width="45" height="45" viewBox="0 0 45 45" fill="none" xmlns="http://www.w3.org/2000/svg">
<rect x="0.5" y="0.5" width="44" height="44" rx="22" stroke="#FFCE1C"/>
<path fill-rule="evenodd" clip-rule="evenodd" d="M28.3633 17.2993C28.9605 17.464 29.4309 17.9492 29.5905 18.5654C29.8806 19.6822 29.8806 22.0124 29.8806 22.0124C29.8806 22.0124 29.8806 24.3426 29.5905 25.4595C29.4309 26.0757 28.9605 26.5609 28.3633 26.7257C27.2809 27.0249 22.9403 27.0249 22.9403 27.0249C22.9403 27.0249 18.5997 27.0249 17.5172 26.7257C16.92 26.5609 16.4496 26.0757 16.29 25.4595C16 24.3426 16 22.0124 16 22.0124C16 22.0124 16 19.6822 16.29 18.5654C16.4496 17.9492 16.92 17.464 17.5172 17.2993C18.5997 17 22.9403 17 22.9403 17C22.9403 17 27.2809 17 28.3633 17.2993ZM21.6406 20.0508V24.4094L25.1108 22.2302L21.6406 20.0508Z" fill="white"/>
</svg>
