<svg width="14" height="11" viewBox="0 0 14 11" fill="none" xmlns="http://www.w3.org/2000/svg">
<path fill-rule="evenodd" clip-rule="evenodd" d="M12.3633 0.299291C12.9605 0.463974 13.4309 0.94921 13.5905 1.56542C13.8806 2.68222 13.8806 5.01244 13.8806 5.01244C13.8806 5.01244 13.8806 7.34258 13.5905 8.45946C13.4309 9.07567 12.9605 9.5609 12.3633 9.72567C11.2809 10.0249 6.9403 10.0249 6.9403 10.0249C6.9403 10.0249 2.59969 10.0249 1.51724 9.72567C0.919984 9.5609 0.449621 9.07567 0.289994 8.45946C0 7.34258 0 5.01244 0 5.01244C0 5.01244 0 2.68222 0.289994 1.56542C0.449621 0.94921 0.919984 0.463974 1.51724 0.299291C2.59969 0 6.9403 0 6.9403 0C6.9403 0 11.2809 0 12.3633 0.299291ZM5.64062 3.05078V7.40942L9.11077 5.23019L5.64062 3.05078Z" fill="white"/>
</svg>
